<?xml version="1.0" standalone="no"?><!DOCTYPE svg PUBLIC "-//W3C//DTD SVG 1.1//EN" "http://www.w3.org/Graphics/SVG/1.1/DTD/svg11.dtd"><svg t="1670496257997" class="icon" viewBox="0 0 1024 1024" version="1.1" xmlns="http://www.w3.org/2000/svg" p-id="5483" xmlns:xlink="http://www.w3.org/1999/xlink" width="200" height="200"><path d="M483.4 674.5L396.6 578c-15.9-15.9-15.9-42 0-58h230.8c15.9 15.9 15.9 42 0 58l-86.1 96.4c-15.9 16.1-42.1 16.1-57.9 0.1z" fill="#91B1D5" p-id="5484"></path><path d="M511 111.1c-27.6 0-50 22.4-50 50v442c0 27.6 22.4 50 50 50s50-22.4 50-50v-442c0-27.6-22.4-50-50-50z" fill="#91B1D5" p-id="5485"></path><path d="M835.3 912.9H188.9c-25.4 0-49.1-9.9-66.9-27.8-17.8-17.9-27.5-41.6-27.5-66.6v-197c0-19.3 15.7-35 35-35s35 15.7 35 35v197c0 6.4 2.6 12.7 7.3 17.4 4.5 4.5 10.6 7 17.1 7h646.4c6.4 0 12.6-2.6 17.2-7.1 4.5-4.5 7-10.7 7-17.2V622.5c0-19.3 15.7-35 35-35s35 15.7 35 35v196c0 25.3-9.8 49-27.5 66.7-17.6 17.6-41.9 27.7-66.7 27.7z" fill="#91B1D5" p-id="5486"></path></svg>